<?xml version="1.0" encoding="utf-8"?>
<!-- Generator: Adobe Illustrator 25.0.0, SVG Export Plug-In . SVG Version: 6.00 Build 0)  -->
<svg version="1.1" id="レイヤー_1" xmlns="http://www.w3.org/2000/svg" xmlns:xlink="http://www.w3.org/1999/xlink" x="0px"
	 y="0px" viewBox="0 0 24 24" style="enable-background:new 0 0 24 24;" xml:space="preserve">
<style type="text/css">
	.st0{fill:none;}
	.st1{fill:#C7C9C9;}
</style>
<g>
	<path class="st0" d="M0,0h24v24H0V0z"/>
	<path class="st1" d="M12,7V5c0-1.1-0.9-2-2-2H4C2.9,3,2,3.9,2,5v14c0,1.1,0.9,2,2,2h16c1.1,0,2-0.9,2-2V9c0-1.1-0.9-2-2-2H12z
		 M6,19H4v-2h2V19z M6,15H4v-2h2V15z M6,11H4V9h2V11z M6,7H4V5h2V7z M10,19H8v-2h2V19z M10,15H8v-2h2V15z M10,11H8V9h2V11z M10,7H8
		V5h2V7z M19,19h-7v-2h2v-2h-2v-2h2v-2h-2V9h7c0.55,0,1,0.45,1,1v8C20,18.55,19.55,19,19,19z M18,11h-2v2h2V11z M18,15h-2v2h2V15z"
		/>
</g>
</svg>
