<?xml version="1.0" encoding="utf-8"?>
<!-- Generator: Adobe Illustrator 25.0.0, SVG Export Plug-In . SVG Version: 6.00 Build 0)  -->
<svg version="1.1" id="レイヤー_1" xmlns="http://www.w3.org/2000/svg" xmlns:xlink="http://www.w3.org/1999/xlink" x="0px"
	 y="0px" viewBox="0 0 24 24" style="enable-background:new 0 0 24 24;" xml:space="preserve">
<style type="text/css">
	.st0{fill:none;}
	.st1{fill:#C7C9C9;}
</style>
<g>
	<g>
		<rect class="st0" width="24" height="24"/>
	</g>
	<g>
		<path class="st1" d="M20.77,12.85l-1,1l-2.05-2.05l1-1c0.21-0.21,0.56-0.21,0.77,0l1.28,1.28C20.98,12.29,20.98,12.64,20.77,12.85
			 M11.07,18.44l6.06-6.06l2.05,2.05l-6.05,6.07h-2.06V18.44 M11.07,13.5c-4.42,0-8,1.79-8,4v2h6v-1.89l4-4
			C12.41,13.53,11.74,13.5,11.07,13.5 M11.07,3.5c-2.21,0-4,1.79-4,4s1.79,4,4,4s4-1.79,4-4S13.28,3.5,11.07,3.5z"/>
	</g>
</g>
</svg>
