<?xml version="1.0" encoding="utf-8"?>
<!-- Generator: Adobe Illustrator 25.0.0, SVG Export Plug-In . SVG Version: 6.00 Build 0)  -->
<svg version="1.1" id="レイヤー_1" xmlns="http://www.w3.org/2000/svg" xmlns:xlink="http://www.w3.org/1999/xlink" x="0px"
	 y="0px" viewBox="0 0 24 24" style="enable-background:new 0 0 24 24;" xml:space="preserve">
<style type="text/css">
	.st0{fill:none;}
	.st1{fill:#C7C9C9;}
</style>
<g>
	<rect class="st0" width="24" height="24"/>
	<rect class="st0" width="24" height="24"/>
	<g>
		<path class="st1" d="M16,15H9v-2h7 M19,11H9V9h10 M19,7H9V5h10 M21,1H7C5.89,1,5,1.89,5,3v14c0,1.11,0.9,2,2,2h14
			c1.11,0,2-0.89,2-2V3C23,1.89,22.1,1,21,1 M3,5v16h16v2H3c-1.1,0-2-0.9-2-2V5H3z"/>
	</g>
</g>
</svg>
